<?xml version="1.0" encoding="UTF-8"?>
<svg id="_レイヤー_1" data-name="レイヤー_1" xmlns="http://www.w3.org/2000/svg" xmlns:xlink="http://www.w3.org/1999/xlink" version="1.1" viewBox="0 0 179 41">
  <!-- Generator: Adobe Illustrator 29.5.1, SVG Export Plug-In . SVG Version: 2.1.0 Build 141)  -->
  <defs>
    <style>
      .st0 {
        fill: none;
      }

      .st1 {
        fill: #fff;
      }

      .st2 {
        fill: hsl(3, 86%, 64%);
        fill-rule: evenodd;
      }

      .st3 {
        clip-path: url(#clippath);
      }
    </style>
    <clipPath id="clippath">
      <rect class="st0" width="179" height="41"/>
    </clipPath>
  </defs>
  <g class="st3">
    <path class="st2" d="M13.7.5c-2.3,0-4.4.9-6,2.5L0,10.7v3.5c0,2.5,1.1,4.7,2.8,6.3C1,22.1,0,24.4,0,26.8v3.5l7.7,7.7c3.3,3.3,8.7,3.3,12,0,0,0,.2-.2.3-.3,3.2,3.5,8.5,3.7,12,.6,0,0,.2-.2.3-.3l7.7-7.7v-3.5c0-2.5-1.1-4.7-2.8-6.3,1.8-1.6,2.8-3.9,2.8-6.3v-3.5l-7.7-7.7c-3.3-3.3-8.7-3.3-12,0,0,0-.2.2-.3.3-1.6-1.8-3.9-2.8-6.3-2.8ZM25.8,20.5c0,0-.2-.2-.3-.3l-5.5-5.5-5.5,5.5c0,0-.2.2-.3.3,0,0,.2.2.3.3l5.5,5.5,5.5-5.5c0,0,.2-.2.3-.3ZM22.2,30.3v1.7c0,2.2,1.8,4.1,4.1,4.1,1.1,0,2.1-.4,2.9-1.2l6.4-6.4v-1.7c0-2.2-1.8-4.1-4.1-4.1-1.1,0-2.1.4-2.9,1.2,0,0-6.4,6.4-6.4,6.4ZM17.8,30.3l-6.4-6.4c-1.6-1.6-4.2-1.6-5.7,0-.8.8-1.2,1.8-1.2,2.9v1.7l6.4,6.4c1.6,1.6,4.2,1.6,5.7,0,.8-.8,1.2-1.8,1.2-2.9,0,0,0-1.7,0-1.7ZM17.8,9v1.7l-6.4,6.4c-1.6,1.6-4.2,1.6-5.7,0-.8-.8-1.2-1.8-1.2-2.9v-1.7l6.4-6.4c1.6-1.6,4.2-1.6,5.7,0,.8.8,1.2,1.8,1.2,2.9ZM28.6,17.1l-6.4-6.4v-1.7c0-2.2,1.8-4.1,4.1-4.1,1.1,0,2.1.4,2.9,1.2l6.4,6.4v1.7c0,2.2-1.8,4.1-4.1,4.1-1.1,0-2.1-.4-2.9-1.2Z"/>
  </g>
  <path class="st1" d="M54.3,29V12.2h11.5v3.1h-7.9v3.6h6.7v2.9h-6.7v4.1h8v3.1s-11.6,0-11.6,0ZM67.1,29l4.4-6-4.1-6.1h4.4l2.1,3.7,2.1-3.7h4.3l-4,6,4.3,6.1h-4.5l-2.4-3.7-2.4,3.7s-4.3,0-4.3,0ZM87.4,29.4c-1.3,0-2.3-.4-3.1-1.1-.7-.7-1.1-1.8-1.1-3.3v-11.6h3.5v3.5h3v2.8h-3v4.6c0,.7.1,1.2.4,1.5s.7.4,1.2.4.5,0,.7,0c.2,0,.5-.2.7-.3l.5,2.8c-.4.2-.8.4-1.3.5-.5.1-1,.2-1.6.2ZM80.8,19.7v-2.8h2.8v2.8h-2.8,0ZM97.9,29.4c-1.3,0-2.5-.3-3.5-.8-1-.5-1.8-1.3-2.3-2.2-.6-1-.8-2.1-.8-3.4s.2-1.8.5-2.6c.3-.8.8-1.5,1.4-2,.6-.6,1.3-1,2.1-1.3.8-.3,1.7-.5,2.6-.5s2,.2,2.8.6c.8.3,1.5.9,2,1.5.5.7.9,1.4,1.1,2.3.2.9.2,1.9,0,2.9h-9.3c0,.6.1,1,.4,1.5.3.4.7.7,1.2,1,.5.2,1.2.3,1.9.3s1.4,0,2-.3c.6-.2,1.3-.5,1.8-.9l1.2,2.4c-.4.3-.9.6-1.4.8-.6.2-1.2.4-1.8.5-.6.1-1.2.2-1.8.2h0ZM94.7,21.4h5.7c0-.7-.3-1.3-.8-1.7-.5-.4-1.1-.6-2-.6s-1.5.2-2.1.6c-.5.4-.9,1-.9,1.7ZM105.8,29v-12.1h3.5v1.4c.5-.6,1-1,1.6-1.3.6-.3,1.3-.4,2-.4,1.1,0,2.1.2,2.8.7.7.4,1.3,1,1.6,1.7.4.7.5,1.4.5,2.2v7.9h-3.5v-6.8c0-.8-.2-1.4-.6-1.8-.4-.5-1-.7-1.8-.7s-1,.1-1.4.3c-.4.2-.7.5-.9.9-.2.4-.3.9-.3,1.4v6.6s-3.5,0-3.5,0ZM125.1,29.3c-1.1,0-2.1-.1-3-.4-.9-.3-1.7-.7-2.3-1.2l1.1-2.4c.6.4,1.3.8,2.1,1,.7.2,1.4.4,2.1.4s1.2-.1,1.5-.3c.4-.2.6-.5.6-.9s-.2-.6-.5-.8c-.3-.2-.9-.3-1.9-.5-1.6-.3-2.8-.7-3.5-1.4-.7-.6-1.1-1.5-1.1-2.6s.2-1.4.6-2c.4-.6,1-1,1.8-1.4.8-.3,1.6-.5,2.6-.5s1.9.1,2.7.4c.9.3,1.6.6,2.2,1.1l-1.1,2.5c-.3-.3-.7-.5-1.1-.7-.4-.2-.8-.3-1.3-.4-.4-.1-.9-.2-1.3-.2-.6,0-1.1.1-1.4.3-.4.2-.5.5-.5.8s.2.6.5.8c.3.2.9.4,1.8.6,1.7.4,2.9.8,3.6,1.4.7.6,1.1,1.4,1.1,2.4s-.2,1.5-.7,2.1c-.4.6-1,1.1-1.8,1.4-.8.3-1.7.5-2.7.5h0ZM132.5,29v-12.1h3.5v12.1h-3.5ZM134.3,15c-.6,0-1.1-.2-1.5-.5-.4-.4-.6-.9-.6-1.5s.2-1.1.6-1.5c.4-.4,1-.6,1.5-.6.6,0,1.1.2,1.5.6.4.4.6.8.6,1.5s-.2,1.1-.6,1.5c-.4.4-1,.6-1.5.5ZM144.6,29.4c-1.3,0-2.5-.3-3.5-.9-1-.6-1.8-1.4-2.4-2.3-.6-1-.9-2.1-.9-3.2,0-.9.2-1.7.5-2.4.3-.8.8-1.5,1.4-2.1.6-.6,1.3-1.1,2.1-1.4s1.7-.5,2.7-.5,2.5.3,3.5.9c1,.6,1.8,1.4,2.4,2.3.6,1,.9,2,.9,3.2s-.2,1.7-.5,2.4c-.3.8-.8,1.5-1.4,2.1-.6.6-1.3,1.1-2.1,1.4-.8.3-1.7.5-2.7.5h0ZM144.6,26.3c.6,0,1.2-.1,1.7-.4.5-.3.9-.7,1.2-1.2.3-.5.4-1.1.4-1.8s-.1-1.3-.4-1.8c-.3-.5-.7-.9-1.1-1.2-.5-.3-1-.4-1.7-.4s-1.2.1-1.7.4c-.5.3-.9.7-1.2,1.2-.3.5-.4,1.1-.4,1.8s.1,1.3.4,1.8.7.9,1.2,1.2c.5.3,1,.4,1.7.4ZM153.2,29v-12.1h3.5v1.4c.5-.6,1-1,1.6-1.3.6-.3,1.3-.4,2-.4,1.1,0,2.1.2,2.8.7.7.4,1.3,1,1.6,1.7.4.7.5,1.4.5,2.2v7.9h-3.5v-6.8c0-.8-.2-1.4-.6-1.8-.4-.5-1-.7-1.8-.7s-1,.1-1.4.3c-.4.2-.7.5-.9.9-.2.4-.3.9-.3,1.4v6.6h-3.5,0ZM172.5,29.3c-1.1,0-2.1-.1-3-.4-.9-.3-1.7-.7-2.3-1.2l1.1-2.4c.6.4,1.3.8,2.1,1,.7.2,1.4.4,2.1.4s1.2-.1,1.5-.3c.4-.2.6-.5.6-.9s-.2-.6-.5-.8c-.3-.2-.9-.3-1.9-.5-1.6-.3-2.8-.7-3.5-1.4-.7-.6-1.1-1.5-1.1-2.6s.2-1.4.6-2c.4-.6,1-1,1.8-1.4.8-.3,1.6-.5,2.6-.5s1.9.1,2.7.4c.9.3,1.6.6,2.2,1.1l-1.1,2.5c-.3-.3-.7-.5-1.1-.7-.4-.2-.8-.3-1.3-.4-.4-.1-.9-.2-1.3-.2-.6,0-1.1.1-1.4.3-.4.2-.5.5-.5.8s.2.6.5.8c.3.2.9.4,1.8.6,1.7.4,2.9.8,3.6,1.4.7.6,1.1,1.4,1.1,2.4s-.2,1.5-.7,2.1c-.4.6-1,1.1-1.8,1.4-.8.3-1.7.5-2.7.5h0Z"/>
</svg>